<svg xmlns="http://www.w3.org/2000/svg" xmlns:xlink="http://www.w3.org/1999/xlink" width="56" height="47" viewBox="0 0 56 47"><defs><path id="amuia" d="M70.3 1258l2.8 4.86a107.7 107.7 0 0 0-5.7 3.76 27.94 27.94 0 0 0-4.45 4.16 19.48 19.48 0 0 0-3.22 5.1 24.28 24.28 0 0 0-1.58 6.87h3.61c3.1 0 5.52.84 7.3 2.51 1.8 1.68 2.68 4.1 2.68 7.33a9.9 9.9 0 0 1-2.46 6.42c-1.66 2-3.9 2.99-6.77 2.99-4.48 0-7.69-1.53-9.62-4.6-1.93-3.05-2.89-7.09-2.89-12.07 0-3.53.72-6.73 2.19-9.63 1.44-2.9 3.22-5.5 5.3-7.77 2.13-2.32 4.4-4.3 6.8-5.93a221.4 221.4 0 0 1 6.01-4zm29.9 0l2.8 4.86a107.76 107.76 0 0 0-5.71 3.76 27.94 27.94 0 0 0-4.44 4.16 19.28 19.28 0 0 0-3.27 5.14 25.42 25.42 0 0 0-1.53 6.83h3.61c3.1 0 5.52.84 7.3 2.51 1.79 1.68 2.68 4.1 2.68 7.33a9.9 9.9 0 0 1-2.46 6.42c-1.66 2-3.9 2.99-6.78 2.99-4.48 0-7.68-1.53-9.61-4.6-1.94-3.05-2.9-7.09-2.9-12.07 0-3.53.73-6.73 2.2-9.63 1.44-2.9 3.22-5.5 5.3-7.77 2.13-2.32 4.4-4.3 6.8-5.93 2.38-1.64 4.4-2.97 6-4z"/></defs><g><g transform="translate(-48 -1256)"><use fill="#dbdbdb" xlink:href="#amuia"/></g></g></svg>